# Blender v2.90.0 OBJ File: ''
# www.blender.org
mtllib Woodblock.mtl
o Cube
v 1.000000 1.000000 -1.000000
v 1.000000 -1.000000 -1.000000
v 1.000000 1.000000 1.000000
v 1.000000 -1.000000 1.000000
v -1.000000 1.000000 -1.000000
v -1.000000 -1.000000 -1.000000
v -1.000000 1.000000 1.000000
v -1.000000 -1.000000 1.000000
vt 0.002661 0.004187
vt 0.997545 0.004187
vt 0.995084 0.999072
vt 0.002661 0.999072
vt 0.994069 0.997340
vt 0.001645 0.999800
vt 0.001645 0.007377
vt 0.994069 0.007377
vt 0.997832 0.000281
vt 1.000293 1.002548
vt 0.002947 0.997626
vt 0.005408 0.005203
vt 0.006423 0.006505
vt 0.996386 0.001583
vt 0.993925 0.998928
vt 0.001502 1.001389
vt 0.999800 1.000917
vt 0.002455 1.000917
vt 0.002455 0.003572
vt 0.999800 0.003572
vt 0.997545 0.002598
vt 0.997545 0.997483
vt 0.002661 0.999944
vt 0.005121 0.005059
vn 0.0000 1.0000 0.0000
vn 0.0000 0.0000 1.0000
vn -1.0000 0.0000 0.0000
vn 0.0000 -1.0000 0.0000
vn 1.0000 0.0000 0.0000
vn 0.0000 0.0000 -1.0000
usemtl Material
s off
f 1/1/1 5/2/1 7/3/1 3/4/1
f 4/5/2 3/6/2 7/7/2 8/8/2
f 8/9/3 7/10/3 5/11/3 6/12/3
f 6/13/4 2/14/4 4/15/4 8/16/4
f 2/17/5 1/18/5 3/19/5 4/20/5
f 6/21/6 5/22/6 1/23/6 2/24/6
